<svg xmlns="http://www.w3.org/2000/svg" viewBox="0 0 1000 860">
<defs>
  <linearGradient id="sea" x1="0" y1="0" x2="0" y2="1"><stop offset="0" stop-color="#dcefeb"/><stop offset="1" stop-color="#c5e0db"/></linearGradient>
  <filter id="shadow" x="-20%" y="-20%" width="140%" height="140%"><feDropShadow dx="0" dy="8" stdDeviation="8" flood-color="#876035" flood-opacity="0.22"/></filter>
</defs>
<rect width="1000" height="860" fill="url(#sea)"/>
<g opacity="0.35" fill="#eef7f4">
  <ellipse cx="80" cy="120" rx="100" ry="44"/>
  <ellipse cx="860" cy="100" rx="140" ry="56"/>
  <ellipse cx="900" cy="760" rx="130" ry="50"/>
</g>
<g opacity="0.25" stroke="#ffffff" stroke-width="6">
  <path d="M60 0 V860"/><path d="M230 0 V860"/><path d="M400 0 V860"/><path d="M570 0 V860"/><path d="M740 0 V860"/><path d="M910 0 V860"/>
  <path d="M0 100 H1000"/><path d="M0 270 H1000"/><path d="M0 440 H1000"/><path d="M0 610 H1000"/><path d="M0 780 H1000"/>
</g>
<g filter="url(#shadow)">
  <path d="M158 532c44-76 132-133 219-127 61 4 113 42 157 82 22 20 45 43 73 52 52 16 108-14 160-13 53 0 95 29 119 70-26 52-89 94-145 105-77 15-158-3-236 5-83 9-163 44-246 37-93-9-170-73-101-211z" fill="#d9aa62" stroke="#b57f42" stroke-width="10"/>
  <path d="M500 624c36-44 89-70 146-61 40 6 67 34 96 59 31 26 72 45 81 84-15 29-48 45-79 52-59 12-121-1-181 3-45 2-89 13-132 1-31-8-60-29-64-61-4-34 20-54 44-77 27-26 55-49 89-58z" fill="#c9904d" stroke="#9c6638" stroke-width="10"/>
  <path d="M210 220c38-52 108-83 171-71 66 12 109 64 148 113-34 48-92 77-150 92-70 19-149 24-215-9-40-20-78-62-61-110 9-26 29-43 50-58 20-14 40-26 57-57z" fill="#d8af60" stroke="#b27e40" stroke-width="10"/>
  <path d="M708 120c44-29 108-38 157-8 47 29 70 86 77 140-41 34-92 60-145 67-53 7-112-8-152-44-27-24-47-59-38-94 12-46 60-49 101-61z" fill="#d19a55" stroke="#ad7440" stroke-width="10"/>
  <path d="M811 470c24-24 65-39 101-22 42 20 61 72 67 114-33 31-74 54-120 57-40 3-86-9-113-42-18-22-25-53-14-80 10-24 36-43 79-27z" fill="#c78f4c" stroke="#9d6838" stroke-width="10"/>
  <path d="M40 470c26-32 71-50 112-40 48 12 81 57 96 104-28 40-76 69-124 82-40 11-89 11-121-18-24-22-32-58-19-89 9-22 29-40 56-39z" fill="#ce9f58" stroke="#a56f3e" stroke-width="10"/>
</g>
<g opacity="0.20" fill="#9a6f46">
  <circle cx="501" cy="520" r="7"/><circle cx="530" cy="505" r="7"/><circle cx="470" cy="548" r="7"/><circle cx="664" cy="684" r="7"/><circle cx="686" cy="699" r="7"/><circle cx="306" cy="685" r="7"/><circle cx="284" cy="700" r="7"/>
  <circle cx="266" cy="275" r="6"/><circle cx="300" cy="260" r="6"/><circle cx="327" cy="300" r="6"/><circle cx="805" cy="205" r="6"/><circle cx="840" cy="228" r="6"/><circle cx="850" cy="536" r="6"/><circle cx="875" cy="550" r="6"/><circle cx="104" cy="548" r="6"/><circle cx="128" cy="565" r="6"/>
</g>
<g stroke="#8d7e57" stroke-width="5" stroke-linecap="round" opacity="0.95">
  <path d="M500 565 L320 690"/>
  <path d="M500 565 L690 730"/>
  <path d="M500 565 L830 540"/>
  <path d="M500 565 L800 210"/>
  <path d="M500 565 L290 290"/>
  <path d="M500 565 L115 545"/>
</g>
</svg>